<svg width="58" height="58" viewBox="0 0 58 58" fill="none" xmlns="http://www.w3.org/2000/svg">
<path fill-rule="evenodd" clip-rule="evenodd" d="M35.5809 18.6945C40.2439 23.3575 40.2439 30.9177 35.5809 35.5807C30.9179 40.2436 23.3576 40.2436 18.6947 35.5807C14.0317 30.9177 14.0317 23.3575 18.6947 18.6945C23.3576 14.0316 30.9179 14.0316 35.5809 18.6945ZM38.091 36.3941C42.8631 30.76 42.592 22.3122 37.2776 16.9978C31.6775 11.3977 22.5981 11.3977 16.9979 16.9978C11.3978 22.5978 11.3978 31.6774 16.9979 37.2775C22.3123 42.5919 30.7601 42.8629 36.3942 38.0909L42.3448 44.0416C42.8133 44.5101 43.5731 44.5101 44.0416 44.0416C44.5102 43.5731 44.5102 42.8134 44.0416 42.3448L38.091 36.3941Z" fill="black"/>
</svg>
