<svg width="59" height="59" viewBox="0 0 59 59" fill="none" xmlns="http://www.w3.org/2000/svg">
<g clip-path="url(#clip0_442_1850)">
<path fill-rule="evenodd" clip-rule="evenodd" d="M36.2109 19.4812C40.8739 24.1442 40.8739 31.7043 36.2109 36.3673C31.5479 41.0303 23.9876 41.0303 19.3247 36.3673C14.6617 31.7043 14.6617 24.1442 19.3247 19.4812C23.9876 14.8182 31.5479 14.8182 36.2109 19.4812ZM38.721 37.1807C43.4931 31.5466 43.222 23.0988 37.9076 17.7844C32.3075 12.1843 23.2281 12.1843 17.6279 17.7844C12.0278 23.3845 12.0278 32.464 17.6279 38.0641C22.9423 43.3785 31.3901 43.6495 37.0242 38.8775L42.9748 44.8282C43.4433 45.2967 44.2031 45.2967 44.6716 44.8282C45.1402 44.3597 45.1402 43.6 44.6716 43.1315L38.721 37.1807Z" fill="white"/>
</g>
<defs>
<clipPath id="clip0_442_1850">
<rect width="57.59" height="57.59" fill="white" transform="translate(0.630005 0.786621)"/>
</clipPath>
</defs>
</svg>
