<svg width="36" height="36" viewBox="0 0 36 36" fill="none" xmlns="http://www.w3.org/2000/svg">
<path d="M18.8718 4.0294C18.3503 3.65687 17.6496 3.65687 17.1281 4.0294L2.87805 14.208L4.62177 16.6491L17.9999 7.09335L31.3781 16.6491L33.1218 14.208L18.8718 4.0294ZM29.3718 19.0295L18.8718 11.5294C18.3503 11.1569 17.6496 11.1569 17.1281 11.5294L6.62805 19.0295C6.23387 19.311 5.99991 19.7655 5.99991 20.25V30C5.99991 30.8284 6.67148 31.5 7.49991 31.5H28.4999C29.3283 31.5 29.9999 30.8284 29.9999 30V20.25C29.9999 19.7655 29.766 19.311 29.3718 19.0295Z" fill="black"/>
</svg>
